<svg xmlns="http://www.w3.org/2000/svg" viewBox="0 0 400 400"><title>favicon</title><rect width="200" height="200" fill="#f4b100"/><rect x="200" width="200" height="200" fill="#70007a"/><rect x="200" y="200" width="200" height="200" fill="#0072a5"/><rect y="200" width="200" height="200" fill="#00ad44"/><path d="M332.2,194.8q0,45.6-20.8,78.8-21.6,34.8-62.8,50.8-28,10.8-83.6,10.8H67.4c-4,0-6-1.06-6-3.2q0-4,11.2-3.6,17.2.41,20.8-6Q95,319.61,95,298V94.4q0-17.59-2.4-21.6-4-7.2-20.4-6.8-8.81.41-8.8-4,0-3.6,5.6-3.6h7.2q24,0,46.4.4,32,.41,49.6.4,72.8,0,111.6,30Q332.21,126.81,332.2,194.8ZM263,195q0-66.09-19.6-96.74T181.8,67.6q-15.2,0-20,3.21-6.41,4-6.4,18.82V294.75q0,26.44,3.2,29.24,4.8,4.41,21.2,4.41Q263,328.4,263,195Z" fill="#fff"/></svg>